<?xml version="1.0" encoding="UTF-8"?>
<svg width="607px" height="166px" viewBox="0 0 607 166" version="1.1" xmlns="http://www.w3.org/2000/svg" xmlns:xlink="http://www.w3.org/1999/xlink">
    <!-- Generator: Sketch 51.3 (57544) - http://www.bohemiancoding.com/sketch -->
    <title>Google_Chrome_logo_and_wordmark_(Carlitoscarlos)</title>
    <desc>Created with Sketch.</desc>
    <defs></defs>
    <g id="Page-1" stroke="none" stroke-width="1" fill="none" fill-rule="evenodd">
        <g id="Google_Chrome_logo_and_wordmark_(Carlitoscarlos)" transform="translate(-1.000000, 0.000000)" fill-rule="nonzero">
            <g id="#da4c40ff" transform="translate(14.000000, 0.000000)" fill="#DA4C40">
                <path d="M47.93,3.05 C67.53,-2.34 89.13,-0.41 107.33,8.72 C123.17,16.53 136.35,29.56 144.41,45.28 C121.57,45.81 98.63,45.19 75.84,45.69 C67.46,44.61 58.7,46.07 51.37,50.35 C41.33,56.05 34.19,66.57 32.75,78.03 C31.77,84.48 32.91,91.04 35.04,97.15 C23.37,77.46 11.99,57.6 0.27,37.94 C11.17,21 28.5,8.35 47.93,3.05 Z" id="Shape"></path>
            </g>
            <g id="#0000008a" transform="translate(213.000000, 28.000000)" fill="#FFFFFF">
                <path d="M65.81,0.76 C69.48,0.76 73.26,0.39 76.87,0.93 C76.86,12.47 77.02,24.04 76.62,35.56 C79.1,33.42 81.09,30.63 84.13,29.14 C91.91,24.58 102.45,24.92 109.77,30.25 C115.8,34.8 118.19,42.66 118.25,49.95 C118.21,62.3 118.36,74.66 118.17,87.01 C114.47,87.08 110.76,87.18 107.06,86.95 C107.04,75.31 107.07,63.68 107.05,52.05 C107.01,47.76 106.15,43.1 103.06,39.9 C99.38,36.28 93.65,35.54 88.79,36.66 C81.29,38.68 76.93,46.67 76.89,54.07 C76.86,65.02 76.87,75.96 76.9,86.91 C73.19,87.21 69.46,87.07 65.76,87 C65.68,58.26 65.57,29.5 65.81,0.76 Z" id="Shape"></path>
                <path d="M13.91,30.86 C21.5,25.91 31.31,24.75 39.96,27.28 C47.6,29.52 53.83,35.53 56.85,42.83 C53.79,44.61 50.34,45.75 47.04,47.06 C45.86,46.47 45.74,44.95 44.98,43.98 C40.42,36.12 29.11,33.92 21.56,38.63 C11.75,44.42 8.98,58.19 13.96,68.04 C17.18,74.74 24.51,79.61 32.09,78.71 C38.67,78.36 44.58,74.01 47.22,68.03 C50.64,68.71 53.92,70.48 57.07,72.01 C55.32,77.29 51.24,81.67 46.62,84.69 C33.58,92.81 14.34,89.18 5.85,76.14 C-3.7,62.13 -0.74,40.25 13.91,30.86 Z" id="Shape"></path>
                <path d="M191.53,26.64 C201.17,24.68 211.85,27.12 219.06,33.98 C231.52,45.77 231.86,67.75 219.99,80.06 C208.96,91.65 188.58,91.95 177.07,80.9 C165.11,69.44 164.44,48.6 175.15,36.1 C179.33,31.2 185.24,27.91 191.53,26.64 Z M194.39,36.55 C191.72,37.12 189.16,38.24 186.97,39.87 C175.83,48.15 176.01,67.57 187.49,75.47 C194.02,80.12 203.51,79.81 209.72,74.75 C218.97,67.39 219.9,52.36 212.77,43.25 C208.53,37.82 201.13,35.13 194.39,36.55 Z" id="Shape"></path>
                <path d="M258.9,27.75 C266.91,24.29 277.52,25.85 283.13,32.87 C284.23,34.08 284.65,35.76 285.84,36.9 C289.29,32.16 294.11,28.27 299.88,26.82 C306.99,25.04 315.41,25.9 320.89,31.18 C325.64,35.77 327.37,42.59 327.59,49 C327.71,61.61 327.53,74.21 327.69,86.81 C323.95,87.17 320.06,87.34 316.35,86.73 C316.52,74.85 316.42,62.96 316.41,51.08 C316.25,46.36 315.31,40.76 310.98,38.03 C306.12,35.24 299.47,35.52 295.08,39.11 C290.66,42.71 288.3,48.43 288.2,54.06 C288.1,65.04 288.33,76.04 288.09,87.02 C284.4,87.1 280.71,87.1 277.03,87.02 C276.95,75.36 277.04,63.69 276.98,52.02 C276.86,47.71 276.4,42.96 273.42,39.59 C270.18,36.15 264.87,35.66 260.48,36.61 C253.08,38.74 248.82,46.7 248.76,54.04 C248.76,64.98 248.72,75.92 248.79,86.86 C245.1,87.28 241.37,87.01 237.67,87.03 C237.51,67.35 237.42,47.62 237.71,27.96 C241.2,27.92 244.7,27.88 248.19,27.99 C248.35,30.66 248.22,33.34 248.17,36.02 C251.31,32.8 254.52,29.36 258.9,27.75 Z" id="Shape"></path>
                <path d="M358.07,26.85 C365.25,25.16 373.12,25.94 379.67,29.44 C390.28,35.02 395.35,48.18 393.78,59.61 C378.37,59.5 362.95,59.6 347.54,59.56 C347.09,66.43 351.28,73.45 357.42,76.64 C365.92,81.31 378.26,78.32 382.23,69.03 C385.54,69.44 388.52,71.51 391.74,72.47 C392.27,74.67 390.18,76.43 389.2,78.21 C379.17,91.85 357.03,92.4 345.23,80.82 C335.7,71.44 333.68,56.06 338.76,43.95 C342.11,35.69 349.31,28.93 358.07,26.85 Z M348.14,49.88 C349.45,50.98 351.42,50.01 353.01,50.31 C362.74,50.25 372.47,50.43 382.2,50.22 C381.69,42.15 373.9,36.16 366.07,36.22 C357.68,35.39 349.93,41.86 348.14,49.88 Z" id="Shape"></path>
                <path d="M141.61,36.66 C145.9,27.94 158.13,23.86 166.65,28.18 C165.52,31.44 164.03,34.57 162.82,37.8 C161.21,38.34 159.53,37.46 157.88,37.54 C151.47,36.95 145.23,41.11 142.82,46.98 C140.79,51.39 141.32,56.33 141.25,61.02 C141.21,69.69 141.34,78.35 141.19,87.01 C137.49,87.08 133.78,87.15 130.08,86.98 C130.05,67.31 130.02,47.65 130.09,27.99 C133.66,27.92 137.24,27.83 140.81,28.04 C140.93,30.97 140.62,33.92 140.96,36.84 L141.61,36.66 Z" id="Shape"></path>
            </g>
            <g id="#159f5cff" transform="translate(0.000000, 37.000000)" fill="#159F5C">
                <path d="M1.03,48.06 C0.52,31.49 5.22,14.83 14.27,0.94 C25.99,20.6 37.37,40.46 49.04,60.15 C53.56,71.23 63.54,79.97 75.23,82.67 C88.45,86 103.29,81.5 112.3,71.24 C114.34,69.56 114.98,66.8 117.24,65.36 C116.98,66.77 116.45,68.78 114.64,68.75 C102.94,88.67 91.57,108.79 80.07,128.81 C59.21,127.87 38.89,118.69 24.41,103.66 C10,88.94 1.4,68.67 1.03,48.06 Z" id="Shape"></path>
            </g>
            <g id="#f1f1f1ff" transform="translate(46.000000, 45.000000)" fill="#F1F1F1">
                <path d="M19.37,5.35 C26.7,1.07 35.46,-0.39 43.84,0.69 C45.04,0.99 46.37,0.67 47.48,1.23 C54.74,3.64 61.77,7.34 66.77,13.29 C76.04,23.66 78.68,39.35 73.38,52.2 C72.7,53.93 71.62,55.51 71.24,57.36 C68.98,58.8 68.34,61.56 66.3,63.24 C57.29,73.5 42.45,78 29.23,74.67 C17.54,71.97 7.56,63.23 3.04,52.15 C0.91,46.04 -0.23,39.48 0.75,33.03 C2.19,21.57 9.33,11.05 19.37,5.35 Z M31.48,8.6 C21.87,10.71 13.57,17.85 10.03,27.03 C5.66,37.86 8.38,51.08 16.74,59.26 C23.92,66.61 35,69.75 45,67.41 C53.97,65.44 61.84,59.09 65.68,50.75 C69.55,42.57 69.43,32.64 65.35,24.57 C59.47,12.3 44.69,5.35 31.48,8.6 Z" id="Shape"></path>
            </g>
            <g id="#fecb40ff" transform="translate(80.000000, 45.000000)" fill="#FECB40">
                <path d="M13.48,1.23 C14.11,1.1 15.36,0.84 15.99,0.7 C36.75,0.35 57.56,1.01 78.31,0.36 C84.43,11.73 87.59,24.98 87.2,37.99 C87.67,52.48 83.56,66.92 76.33,79.43 C65.65,97.95 47.56,112.07 26.94,117.76 C18.24,120.36 9.1,121.04 0.07,120.81 C11.57,100.79 22.94,80.67 34.64,60.75 C36.45,60.78 36.98,58.77 37.24,57.36 C37.62,55.51 38.7,53.93 39.38,52.2 C44.68,39.35 42.04,23.66 32.77,13.29 C27.77,7.34 20.74,3.64 13.48,1.23 Z" id="Shape"></path>
            </g>
            <g id="#4788f4ff" transform="translate(53.000000, 52.000000)" fill="#4788F4">
                <path d="M24.48,1.6 C37.69,-1.65 52.47,5.3 58.35,17.57 C62.43,25.64 62.55,35.57 58.68,43.75 C54.84,52.09 46.97,58.44 38,60.41 C28,62.75 16.92,59.61 9.74,52.26 C1.38,44.08 -1.34,30.86 3.03,20.03 C6.57,10.85 14.87,3.71 24.48,1.6 Z" id="Shape"></path>
            </g>
        </g>
    </g>
</svg>