<svg width="16" height="16" viewBox="0 0 16 16" fill="none" xmlns="http://www.w3.org/2000/svg">
<rect width="16" height="16" rx="3" fill="#0047FF"/>
<path d="M8.03212 14.8367C7.52694 14.8367 6.99651 14.7558 6.44081 14.5942C5.88512 14.4426 5.36479 14.1749 4.87982 13.791C4.39485 13.407 3.99576 12.8766 3.68255 12.1997L4.15237 11.7147C4.39485 11.9067 4.65754 12.0481 4.94044 12.139C5.22334 12.23 5.50624 12.2754 5.78914 12.2754C6.13266 12.2754 6.46607 12.2098 6.78938 12.0784C7.1228 11.9471 7.4158 11.7551 7.66839 11.5025C7.78963 11.553 7.91087 11.5783 8.03212 11.5783C8.23419 11.5783 8.40595 11.5328 8.5474 11.4419C8.68884 11.3409 8.77978 11.255 8.82019 11.1843V11.1388C8.82019 11.0681 8.77978 11.0378 8.69895 11.0479C8.58781 11.0782 8.47162 11.1034 8.35038 11.1236C8.22913 11.1438 8.12305 11.1539 8.03212 11.1539L7.9715 11.1388C8.30491 10.6841 8.47162 10.1688 8.47162 9.59295C8.47162 9.4515 8.45646 9.305 8.42615 9.15345C8.40595 9.0019 8.37058 8.86045 8.32007 8.7291H8.22913C8.15841 8.7291 8.07758 8.73415 7.98665 8.74426C7.90582 8.74426 7.81994 8.74931 7.72901 8.75941C7.78963 8.89076 7.83005 9.02715 7.85025 9.1686C7.88056 9.31005 7.89572 9.4515 7.89572 9.59295C7.89572 9.85564 7.85025 10.1133 7.75932 10.3659C7.66839 10.6185 7.52694 10.8458 7.33497 11.0479H7.30466C7.24404 11.0479 7.22383 11.0782 7.24404 11.1388C7.04197 11.3308 6.81464 11.4773 6.56206 11.5783C6.30947 11.6692 6.05183 11.7147 5.78914 11.7147C5.22334 11.7147 4.72322 11.5076 4.28877 11.0933C4.08669 10.8913 3.93009 10.6589 3.81895 10.3962C3.71792 10.1335 3.6674 9.86574 3.6674 9.59295C3.6674 9.24943 3.74318 8.92612 3.89473 8.62301C3.71287 8.56239 3.54616 8.48662 3.3946 8.39569C3.20264 8.76952 3.10665 9.1686 3.10665 9.59295C3.10665 9.87585 3.15212 10.1587 3.24305 10.4416C3.33398 10.7245 3.47038 10.9822 3.65224 11.2146L3.42492 11.457C3.35419 11.2348 3.29357 10.9973 3.24305 10.7448C2.97026 10.6942 2.73282 10.578 2.53075 10.3962C2.32868 10.2042 2.22765 9.92637 2.22765 9.56264C2.22765 9.39088 2.25291 9.24438 2.30343 9.12314C2.35394 9.00189 2.41456 8.90086 2.48529 8.82003V8.04711C1.88918 7.87535 1.43452 7.70865 1.12131 7.54699C0.818209 7.38533 0.666656 7.17316 0.666656 6.91047V6.60736C0.666656 6.32447 0.813157 6.08703 1.10616 5.89507C1.39916 5.693 1.85887 5.49598 2.48529 5.30401C2.57622 5.28381 2.6722 5.25855 2.77324 5.22824C2.88438 5.18782 3.00057 5.15246 3.12181 5.12215C3.05109 5.28381 2.98036 5.44546 2.90964 5.60712C2.83891 5.75867 2.76819 5.92033 2.69746 6.09209C2.69746 6.33457 2.84901 6.54674 3.15212 6.72861C3.45523 6.91047 3.85937 7.06202 4.36454 7.18326C4.87982 7.2944 5.45572 7.38028 6.09224 7.4409C6.72876 7.50152 7.38044 7.53184 8.04727 7.53184C8.72421 7.53184 9.38093 7.50152 10.0175 7.4409C10.6641 7.38028 11.245 7.28935 11.7603 7.16811C12.2756 7.04687 12.6797 6.90037 12.9727 6.72861C13.2758 6.54674 13.4274 6.33457 13.4274 6.09209C13.3466 5.92033 13.2657 5.74857 13.1849 5.57681C13.1041 5.39494 13.0233 5.21308 12.9424 5.03122C12.6494 5.20298 12.2453 5.34948 11.73 5.47072C11.2248 5.59196 10.654 5.68289 10.0175 5.74352C9.38093 5.80414 8.72421 5.83445 8.04727 5.83445C7.38044 5.83445 6.72876 5.80414 6.09224 5.74352C5.45572 5.68289 4.87982 5.59196 4.36454 5.47072C3.85937 5.34948 3.45523 5.20298 3.15212 5.03122C3.43502 4.37449 3.70781 3.77333 3.9705 3.22774C4.2433 2.67205 4.54135 2.2275 4.86467 1.89408C5.19808 1.56066 5.59212 1.39396 6.04678 1.39396C6.07709 1.39396 6.1074 1.39396 6.13771 1.39396C6.16802 1.39396 6.20338 1.39901 6.24379 1.40911C6.57721 1.48994 6.86516 1.55561 7.10764 1.60613C7.36023 1.64654 7.60272 1.66675 7.8351 1.66675C8.05737 1.66675 8.28976 1.64654 8.53224 1.60613C8.78483 1.55561 9.07783 1.47478 9.41125 1.36365C9.46176 1.35354 9.51733 1.34849 9.57795 1.34849C9.63857 1.33839 9.69414 1.33334 9.74466 1.33334C10.2397 1.33334 10.6691 1.51015 11.0329 1.86377C11.4067 2.20729 11.7452 2.65689 12.0483 3.21259C12.3514 3.75818 12.6444 4.34418 12.9273 4.9706C13.0081 4.9908 13.0839 5.01101 13.1546 5.03122C13.2354 5.05143 13.3112 5.07163 13.3819 5.09184C14.0184 5.2737 14.5085 5.50103 14.852 5.77383C15.2056 6.04662 15.3824 6.32447 15.3824 6.60736V6.91047C15.3824 7.17316 15.2258 7.40554 14.9126 7.60761C14.6095 7.80968 14.1599 8.00165 13.5638 8.18351C13.5537 8.35527 13.5436 8.49167 13.5335 8.5927C13.5234 8.69374 13.5183 8.74931 13.5183 8.75941C13.5992 8.84024 13.6699 8.94633 13.7305 9.07767C13.8012 9.20902 13.8366 9.37067 13.8366 9.56264C13.8366 9.92637 13.7305 10.2042 13.5183 10.3962C13.3163 10.578 13.0788 10.6942 12.806 10.7448C12.6747 11.553 12.4372 12.2249 12.0937 12.7604C11.7502 13.2858 11.3461 13.7 10.8813 14.0031C10.4266 14.3062 9.95178 14.5184 9.45671 14.6397C8.96164 14.771 8.48677 14.8367 8.03212 14.8367ZM7.78963 2.92464C8.11294 2.92464 8.40595 2.85897 8.66864 2.72762C8.93133 2.59627 9.14855 2.45482 9.32031 2.30327C9.49207 2.15172 9.58806 2.04563 9.60826 1.98501C9.61837 1.97491 9.62342 1.95975 9.62342 1.93955C9.62342 1.90924 9.60826 1.88398 9.57795 1.86377C9.54764 1.83346 9.51228 1.82841 9.47187 1.84861C9.21928 1.95975 8.95659 2.06079 8.68379 2.15172C8.411 2.24265 8.13315 2.30832 7.85025 2.34874C7.80984 2.34874 7.76437 2.35379 7.71386 2.36389C7.67344 2.36389 7.63303 2.36389 7.59261 2.36389C7.03692 2.36389 6.5368 2.21234 6.09224 1.90924C6.08214 1.89913 6.06698 1.89408 6.04678 1.89408C6.00636 1.89408 5.98616 1.92944 5.98616 2.00017V2.06079C6.14781 2.31338 6.37514 2.5205 6.66814 2.68215C6.97125 2.84381 7.34508 2.92464 7.78963 2.92464ZM10.2751 10.381C10.4469 10.381 10.5934 10.3052 10.7146 10.1537C10.8459 10.0021 10.9116 9.81523 10.9116 9.59295C10.9116 9.35047 10.8308 9.1484 10.6691 8.98674C10.558 8.97664 10.4418 8.96653 10.3206 8.95643C10.1993 8.94633 10.0781 8.93117 9.95683 8.91096C9.73456 9.06252 9.62342 9.28984 9.62342 9.59295C9.62342 9.81523 9.68404 10.0021 9.80528 10.1537C9.93663 10.3052 10.0932 10.381 10.2751 10.381ZM5.78914 10.381C5.971 10.381 6.12255 10.3052 6.24379 10.1537C6.37514 10.0021 6.44081 9.81523 6.44081 9.59295C6.44081 9.33026 6.33978 9.11303 6.13771 8.94127C5.88512 8.97158 5.63758 8.98674 5.3951 8.98674C5.22334 9.13829 5.13746 9.34036 5.13746 9.59295C5.13746 9.81523 5.19808 10.0021 5.31932 10.1537C5.45067 10.3052 5.60727 10.381 5.78914 10.381ZM1.81846 14.3669C1.6568 14.3669 1.47494 14.2759 1.27287 14.0941C1.10111 13.9223 1.01523 13.7455 1.01523 13.5636C1.01523 13.4727 1.04049 13.402 1.091 13.3515L2.57622 11.8662C2.63684 11.8056 2.71262 11.7753 2.80355 11.7753C2.97531 11.7753 3.14707 11.8662 3.31883 12.0481C3.50069 12.23 3.59162 12.4068 3.59162 12.5785C3.59162 12.6695 3.56636 12.7402 3.51585 12.7907L2.01548 14.2911C1.96496 14.3416 1.89928 14.3669 1.81846 14.3669ZM8.03212 13.1696C8.44636 13.1696 8.78483 13.0888 9.04752 12.9271C9.31021 12.7553 9.47692 12.6139 9.54764 12.5028C9.58806 12.4623 9.60826 12.4169 9.60826 12.3664C9.60826 12.2855 9.54764 12.2451 9.4264 12.2451H6.62268C6.51154 12.2451 6.45597 12.2855 6.45597 12.3664C6.45597 12.4068 6.47112 12.4522 6.50143 12.5028C6.58226 12.6139 6.75402 12.7553 7.01671 12.9271C7.28951 13.0888 7.62798 13.1696 8.03212 13.1696Z" fill="white"/>
</svg>
