<svg width="48" height="48" viewBox="0 0 48 48" fill="none" xmlns="http://www.w3.org/2000/svg">
<path d="M0 9C0 4.02944 4.02944 0 9 0H39C43.9706 0 48 4.02944 48 9V39C48 43.9706 43.9706 48 39 48H9C4.02944 48 0 43.9706 0 39V9Z" fill="#0047FF"/>
<path d="M24.184 38.576C23.1173 38.576 21.9973 38.4053 20.824 38.064C19.6507 37.744 18.552 37.1787 17.528 36.368C16.504 35.5573 15.6613 34.4373 15 33.008L15.992 31.984C16.504 32.3893 17.0587 32.688 17.656 32.88C18.2533 33.072 18.8507 33.168 19.448 33.168C20.1733 33.168 20.8773 33.0293 21.56 32.752C22.264 32.4747 22.8827 32.0693 23.416 31.536C23.672 31.6427 23.928 31.696 24.184 31.696C24.6107 31.696 24.9733 31.6 25.272 31.408C25.5707 31.1947 25.7627 31.0133 25.848 30.864V30.768C25.848 30.6187 25.7627 30.5547 25.592 30.576C25.3573 30.64 25.112 30.6933 24.856 30.736C24.6 30.7787 24.376 30.8 24.184 30.8L24.056 30.768C24.76 29.808 25.112 28.72 25.112 27.504C25.112 27.2053 25.08 26.896 25.016 26.576C24.9733 26.256 24.8987 25.9573 24.792 25.68H24.6C24.4507 25.68 24.28 25.6907 24.088 25.712C23.9173 25.712 23.736 25.7227 23.544 25.744C23.672 26.0213 23.7573 26.3093 23.8 26.608C23.864 26.9067 23.896 27.2053 23.896 27.504C23.896 28.0587 23.8 28.6027 23.608 29.136C23.416 29.6693 23.1173 30.1493 22.712 30.576H22.648C22.52 30.576 22.4773 30.64 22.52 30.768C22.0933 31.1733 21.6133 31.4827 21.08 31.696C20.5467 31.888 20.0027 31.984 19.448 31.984C18.2533 31.984 17.1973 31.5467 16.28 30.672C15.8533 30.2453 15.5227 29.7547 15.288 29.2C15.0747 28.6453 14.968 28.08 14.968 27.504C14.968 26.7787 15.128 26.096 15.448 25.456C15.064 25.328 14.712 25.168 14.392 24.976C13.9867 25.7653 13.784 26.608 13.784 27.504C13.784 28.1013 13.88 28.6987 14.072 29.296C14.264 29.8933 14.552 30.4373 14.936 30.928L14.456 31.44C14.3067 30.9707 14.1787 30.4693 14.072 29.936C13.496 29.8293 12.9947 29.584 12.568 29.2C12.1413 28.7947 11.928 28.208 11.928 27.44C11.928 27.0773 11.9813 26.768 12.088 26.512C12.1947 26.256 12.3227 26.0427 12.472 25.872V24.24C11.2133 23.8773 10.2533 23.5253 9.592 23.184C8.952 22.8427 8.632 22.3947 8.632 21.84V21.2C8.632 20.6027 8.94133 20.1013 9.56 19.696C10.1787 19.2693 11.1493 18.8533 12.472 18.448C12.664 18.4053 12.8667 18.352 13.08 18.288C13.3147 18.2027 13.56 18.128 13.816 18.064C13.6667 18.4053 13.5173 18.7467 13.368 19.088C13.2187 19.408 13.0693 19.7493 12.92 20.112C12.92 20.624 13.24 21.072 13.88 21.456C14.52 21.84 15.3733 22.16 16.44 22.416C17.528 22.6507 18.744 22.832 20.088 22.96C21.432 23.088 22.808 23.152 24.216 23.152C25.6453 23.152 27.032 23.088 28.376 22.96C29.7413 22.832 30.968 22.64 32.056 22.384C33.144 22.128 33.9973 21.8187 34.616 21.456C35.256 21.072 35.576 20.624 35.576 20.112C35.4053 19.7493 35.2347 19.3867 35.064 19.024C34.8933 18.64 34.7227 18.256 34.552 17.872C33.9333 18.2347 33.08 18.544 31.992 18.8C30.9253 19.056 29.72 19.248 28.376 19.376C27.032 19.504 25.6453 19.568 24.216 19.568C22.808 19.568 21.432 19.504 20.088 19.376C18.744 19.248 17.528 19.056 16.44 18.8C15.3733 18.544 14.52 18.2347 13.88 17.872C14.4773 16.4853 15.0533 15.216 15.608 14.064C16.184 12.8907 16.8133 11.952 17.496 11.248C18.2 10.544 19.032 10.192 19.992 10.192C20.056 10.192 20.12 10.192 20.184 10.192C20.248 10.192 20.3227 10.2027 20.408 10.224C21.112 10.3947 21.72 10.5333 22.232 10.64C22.7653 10.7253 23.2773 10.768 23.768 10.768C24.2373 10.768 24.728 10.7253 25.24 10.64C25.7733 10.5333 26.392 10.3627 27.096 10.128C27.2027 10.1067 27.32 10.096 27.448 10.096C27.576 10.0747 27.6933 10.064 27.8 10.064C28.8453 10.064 29.752 10.4373 30.52 11.184C31.3093 11.9093 32.024 12.8587 32.664 14.032C33.304 15.184 33.9227 16.4213 34.52 17.744C34.6907 17.7867 34.8507 17.8293 35 17.872C35.1707 17.9147 35.3307 17.9573 35.48 18C36.824 18.384 37.8587 18.864 38.584 19.44C39.3307 20.016 39.704 20.6027 39.704 21.2V21.84C39.704 22.3947 39.3733 22.8853 38.712 23.312C38.072 23.7387 37.1227 24.144 35.864 24.528C35.8427 24.8907 35.8213 25.1787 35.8 25.392C35.7787 25.6053 35.768 25.7227 35.768 25.744C35.9387 25.9147 36.088 26.1387 36.216 26.416C36.3653 26.6933 36.44 27.0347 36.44 27.44C36.44 28.208 36.216 28.7947 35.768 29.2C35.3413 29.584 34.84 29.8293 34.264 29.936C33.9867 31.6427 33.4853 33.0613 32.76 34.192C32.0347 35.3013 31.1813 36.176 30.2 36.816C29.24 37.456 28.2373 37.904 27.192 38.16C26.1467 38.4373 25.144 38.576 24.184 38.576ZM23.672 13.424C24.3547 13.424 24.9733 13.2853 25.528 13.008C26.0827 12.7307 26.5413 12.432 26.904 12.112C27.2667 11.792 27.4693 11.568 27.512 11.44C27.5333 11.4187 27.544 11.3867 27.544 11.344C27.544 11.28 27.512 11.2267 27.448 11.184C27.384 11.12 27.3093 11.1093 27.224 11.152C26.6907 11.3867 26.136 11.6 25.56 11.792C24.984 11.984 24.3973 12.1227 23.8 12.208C23.7147 12.208 23.6187 12.2187 23.512 12.24C23.4267 12.24 23.3413 12.24 23.256 12.24C22.0827 12.24 21.0267 11.92 20.088 11.28C20.0667 11.2587 20.0347 11.248 19.992 11.248C19.9067 11.248 19.864 11.3227 19.864 11.472V11.6C20.2053 12.1333 20.6853 12.5707 21.304 12.912C21.944 13.2533 22.7333 13.424 23.672 13.424ZM28.92 29.168C29.2827 29.168 29.592 29.008 29.848 28.688C30.1253 28.368 30.264 27.9733 30.264 27.504C30.264 26.992 30.0933 26.5653 29.752 26.224C29.5173 26.2027 29.272 26.1813 29.016 26.16C28.76 26.1387 28.504 26.1067 28.248 26.064C27.7787 26.384 27.544 26.864 27.544 27.504C27.544 27.9733 27.672 28.368 27.928 28.688C28.2053 29.008 28.536 29.168 28.92 29.168ZM19.448 29.168C19.832 29.168 20.152 29.008 20.408 28.688C20.6853 28.368 20.824 27.9733 20.824 27.504C20.824 26.9493 20.6107 26.4907 20.184 26.128C19.6507 26.192 19.128 26.224 18.616 26.224C18.2533 26.544 18.072 26.9707 18.072 27.504C18.072 27.9733 18.2 28.368 18.456 28.688C18.7333 29.008 19.064 29.168 19.448 29.168ZM11.064 37.584C10.7227 37.584 10.3387 37.392 9.912 37.008C9.54933 36.6453 9.368 36.272 9.368 35.888C9.368 35.696 9.42133 35.5467 9.528 35.44L12.664 32.304C12.792 32.176 12.952 32.112 13.144 32.112C13.5067 32.112 13.8693 32.304 14.232 32.688C14.616 33.072 14.808 33.4453 14.808 33.808C14.808 34 14.7547 34.1493 14.648 34.256L11.48 37.424C11.3733 37.5307 11.2347 37.584 11.064 37.584ZM24.184 35.056C25.0587 35.056 25.7733 34.8853 26.328 34.544C26.8827 34.1813 27.2347 33.8827 27.384 33.648C27.4693 33.5627 27.512 33.4667 27.512 33.36C27.512 33.1893 27.384 33.104 27.128 33.104H21.208C20.9733 33.104 20.856 33.1893 20.856 33.36C20.856 33.4453 20.888 33.5413 20.952 33.648C21.1227 33.8827 21.4853 34.1813 22.04 34.544C22.616 34.8853 23.3307 35.056 24.184 35.056Z" fill="white"/>
</svg>
